# xmcd CD database file
#
# Track frame offsets:
#	150
#	28242
#	54262
#	80543
#	108357
#	133931
#	160307
#	202630
#
# Disc length: 3198 seconds
#
# Revision: 0
# Processed by: cddbd v1.5.2PL0 Copyright (c) Steve Scherf et al.
# Submitted via: CDex 1.70beta2
#
DISCID=620c7c08
DTITLE=Delago, Manu - Handmade
DYEAR=2007
DGENRE=Jazz
TTITLE0=Elm on a stone
TTITLE1=looking for the core
TTITLE2=missing link
TTITLE3=slowing down the masses
TTITLE4=satori
TTITLE5=yang
TTITLE6=the apparatus
TTITLE7=constant residence
EXTD=YEAR: 2007
EXTT0=
EXTT1=
EXTT2=
EXTT3=
EXTT4=
EXTT5=
EXTT6=
EXTT7=
PLAYORDER=
